<svg data-v-fde0c5aa="" xmlns="http://www.w3.org/2000/svg" viewBox="0 0 300 300" class="font"><!----><defs data-v-fde0c5aa=""><!----></defs><rect data-v-fde0c5aa="" fill="transparent" x="0" y="0" width="300px" height="300px" class="logo-background-square"></rect><defs data-v-fde0c5aa=""><linearGradient data-v-fde0c5aa="" gradientTransform="rotate(25)" id="48aba9d0-7b96-435e-97f8-82b98b7798b0" x1="0%" y1="0%" x2="100%" y2="0%"><stop data-v-fde0c5aa="" offset="0%" stop-color="#ff4948" stop-opacity="1"></stop><stop data-v-fde0c5aa="" offset="100%" stop-color="#d62130" stop-opacity="1"></stop></linearGradient></defs><g data-v-fde0c5aa="" id="a80fb4f9-5b12-4b2f-81d4-f57382bd6c14" fill="url(#48aba9d0-7b96-435e-97f8-82b98b7798b0)" transform="matrix(3.549532175064087,0,0,3.549532175064087,39.11261696666325,124.05291962074136)"><path d="M2.90 7.08L2.90 7.94L2.90 7.94Q2.90 8.42 2.91 8.75L2.91 8.75L2.91 8.75Q2.92 9.08 2.98 9.54L2.98 9.54L2.98 9.54Q3.04 10.00 3.06 10.04L3.06 10.04L3.96 10.20L3.96 10.68L2.09 10.64L0.37 10.68L0.37 10.20L1.12 10.04L1.19 9.39L1.19 9.39Q1.22 9.09 1.24 8.70L1.24 8.70L1.24 8.70Q1.26 8.32 1.26 7.94L1.26 7.94L1.26 6.40L1.26 6.22L1.26 6.06L1.26 6.06Q1.26 5.81 1.25 5.55L1.25 5.55L1.25 5.55Q1.24 5.28 1.20 5.03L1.20 5.03L1.13 4.19L0.25 4.02L0.25 3.54L0.25 3.54Q0.54 3.54 0.77 3.50L0.77 3.50L0.77 3.50Q1.12 3.43 1.29 3.41L1.29 3.41L1.29 3.41Q1.63 3.35 1.82 3.31L1.82 3.31L1.82 3.31Q2.01 3.26 2.34 3.17L2.34 3.17L2.75 3.17L2.70 5.24L2.70 5.24Q3.04 4.24 3.74 3.72L3.74 3.72L3.74 3.72Q4.07 3.48 4.41 3.35L4.41 3.35L4.41 3.35Q4.75 3.22 5.11 3.22L5.11 3.22L5.11 3.22Q5.25 3.22 5.39 3.24L5.39 3.24L5.39 3.24Q5.53 3.26 5.68 3.31L5.68 3.31L5.68 3.31Q5.84 3.35 5.93 3.43L5.93 3.43L5.52 4.48L5.29 5.27L5.29 5.27Q4.81 5.16 4.80 5.05L4.80 5.05L4.80 5.05Q4.80 4.91 4.83 4.84L4.83 4.84L4.83 4.84Q4.83 4.55 4.74 4.52L4.74 4.52L4.74 4.52Q4.65 4.48 4.49 4.48L4.49 4.48L4.49 4.48Q3.85 4.48 3.37 5.23L3.37 5.23L3.37 5.23Q2.90 5.98 2.90 7.08L2.90 7.08ZM13.94 3.22L13.88 4.35L13.88 8.04L13.89 9.33L13.89 9.33Q13.89 9.48 13.90 9.58L13.90 9.58L13.90 9.58Q13.92 9.67 14 10.04L14 10.04L14.76 10.20L14.75 10.68L13.57 10.64L12.32 10.68L12.32 9.32L12.32 9.32Q11.81 10.08 11.15 10.46L11.15 10.46L11.15 10.46Q10.49 10.84 9.75 10.84L9.75 10.84L9.75 10.84Q8.82 10.84 8.20 10.22L8.20 10.22L8.20 10.22Q7.58 9.60 7.58 8.65L7.58 8.65L7.58 6.05L7.58 6.05Q7.58 5.52 7.53 5.00L7.53 5.00L7.53 5.00Q7.53 4.72 7.49 4.51L7.49 4.51L7.49 4.51Q7.46 4.30 7.45 4.23L7.45 4.23L6.57 4.06L6.57 3.57L6.57 3.57Q6.85 3.57 6.99 3.56L6.99 3.56L6.99 3.56Q7.13 3.55 7.66 3.44L7.66 3.44L7.66 3.44Q8.22 3.37 8.73 3.22L8.73 3.22L9.34 3.22L9.22 5.64L9.22 7.55L9.22 7.55Q9.22 8.59 9.53 9.12L9.53 9.12L9.53 9.12Q9.84 9.65 10.49 9.65L10.49 9.65L10.49 9.65Q11.33 9.65 11.79 8.91L11.79 8.91L11.79 8.91Q12.25 8.17 12.25 6.92L12.25 6.92L12.25 6.05L12.25 6.05Q12.25 5.81 12.24 5.55L12.24 5.55L12.24 5.55Q12.22 5.29 12.19 5.00L12.19 5.00L12.12 4.23L11.24 4.06L11.24 3.57L11.24 3.57Q11.49 3.57 11.69 3.54L11.69 3.54L11.69 3.54Q11.90 3.51 12.27 3.44L12.27 3.44L12.27 3.44Q12.78 3.37 13.32 3.22L13.32 3.22L13.94 3.22ZM18.03 2.12L18.03 4.24L18.03 4.24Q18.52 3.68 19.08 3.45L19.08 3.45L19.08 3.45Q19.64 3.22 20.21 3.22L20.21 3.22L20.21 3.22Q21.55 3.22 22.35 4.22L22.35 4.22L22.35 4.22Q23.15 5.23 23.15 6.87L23.15 6.87L23.15 6.87Q23.15 8.57 22.01 9.70L22.01 9.70L22.01 9.70Q20.86 10.84 19.16 10.84L19.16 10.84L19.16 10.84Q18.91 10.84 18.63 10.82L18.63 10.82L18.63 10.82Q18.36 10.81 18.07 10.77L18.07 10.77L18.07 10.77Q17.79 10.72 17.50 10.68L17.50 10.68L17.50 10.68Q17.22 10.64 17.01 10.64L17.01 10.64L16.82 10.64L15.88 10.68L16.26 10.04L16.26 10.04Q16.29 9.98 16.31 9.78L16.31 9.78L16.31 9.78Q16.34 9.57 16.34 9.45L16.34 9.45L16.39 8.16L16.39 3.42L16.39 3.22L16.39 3.05L16.39 2.91L16.39 2.91Q16.39 2.67 16.38 2.43L16.38 2.43L16.38 2.43Q16.37 2.19 16.34 1.99L16.34 1.99L16.26 1.22L15.38 1.05L15.38 0.56L17.54 0.20L18.16 0.20L18.05 1.25L18.03 2.12ZM18.03 6.29L18.03 6.29L18.03 9.50L18.03 9.50Q18.03 9.62 18.50 9.81L18.50 9.81L18.50 9.81Q18.75 9.89 19.01 9.93L19.01 9.93L19.01 9.93Q19.27 9.97 19.53 9.97L19.53 9.97L19.53 9.97Q20.31 9.97 20.86 9.15L20.86 9.15L20.86 9.15Q21.40 8.33 21.40 7.15L21.40 7.15L21.40 7.15Q21.40 6.49 21.27 6.03L21.27 6.03L21.27 6.03Q21.15 5.56 20.86 5.16L20.86 5.16L20.86 5.16Q20.34 4.40 19.43 4.40L19.43 4.40L19.43 4.40Q18.73 4.40 18.38 4.88L18.38 4.88L18.38 4.88Q18.03 5.36 18.03 6.29ZM28.69 4.00L28.05 3.86L28.05 3.38L29.29 3.42L30.55 3.38L30.55 3.85L30.12 4.00L30.12 4.00Q29.38 5.71 28.71 7.49L28.71 7.49L27.44 10.99L27.44 10.99Q26.88 12.61 25.91 13.51L25.91 13.51L25.91 13.51Q24.95 14.42 23.63 14.42L23.63 14.42L23.63 14.42Q23.44 14.42 23.26 14.41L23.26 14.41L23.26 14.41Q23.08 14.39 22.94 14.36L22.94 14.36L22.94 14.36Q22.65 14.32 22.45 14.20L22.45 14.20L22.95 12.32L23.40 12.37L23.48 13.02L23.77 13.12L24.14 13.15L24.14 13.15Q24.95 13.15 25.63 12.41L25.63 12.41L25.63 12.41Q26.31 11.66 26.53 10.93L26.53 10.93L26.62 10.68L26.00 10.68L26.00 10.68Q25.43 8.92 24.78 7.28L24.78 7.28L24.78 7.28Q24.13 5.64 23.40 4.02L23.40 4.02L22.83 3.86L22.83 3.38L24.41 3.42L26.01 3.38L26.01 3.85L25.33 4.00L25.33 4.00Q25.75 5.47 26.20 6.76L26.20 6.76L27.11 9.52L27.96 6.77L27.96 6.77Q28.32 5.49 28.69 4.00L28.69 4.00ZM33.78 6.22L33.78 8.20L33.78 8.20Q33.78 8.32 33.80 8.71L33.80 8.71L33.80 8.71Q33.83 9.10 33.83 9.25L33.83 9.25L33.83 9.25Q33.83 9.54 33.86 9.75L33.86 9.75L33.86 9.75Q33.90 9.95 33.95 10.04L33.95 10.04L35.15 10.20L35.15 10.68L32.91 10.64L31.06 10.68L31.06 10.20L31.92 10.04L32.03 8.20L32.03 3.82L31.92 1.98L31.06 1.83L31.06 1.35L32.91 1.38L37.98 1.38L38.41 3.16L37.93 3.36L37.50 2.61L37.50 2.61Q37.40 2.56 37.07 2.50L37.07 2.50L37.07 2.50Q36.75 2.44 36.30 2.38L36.30 2.38L36.30 2.38Q35.35 2.28 34.30 2.28L34.30 2.28L33.87 2.28L33.83 3.03L33.83 3.03Q33.83 3.28 33.80 3.94L33.80 3.94L33.80 3.94Q33.78 4.61 33.78 4.77L33.78 4.77L33.78 5.35L34.12 5.36L36.61 5.25L36.90 4.66L37.40 4.66L37.35 5.83L37.35 5.83Q37.35 6.06 37.37 6.36L37.37 6.36L37.37 6.36Q37.38 6.65 37.41 6.98L37.41 6.98L36.91 6.98L36.60 6.31L34.37 6.22L33.78 6.22ZM46.16 3.22L46.10 4.35L46.10 8.04L46.11 9.33L46.11 9.33Q46.11 9.48 46.12 9.58L46.12 9.58L46.12 9.58Q46.13 9.67 46.22 10.04L46.22 10.04L46.98 10.20L46.97 10.68L45.79 10.64L44.54 10.68L44.54 9.32L44.54 9.32Q44.03 10.08 43.36 10.46L43.36 10.46L43.36 10.46Q42.70 10.84 41.96 10.84L41.96 10.84L41.96 10.84Q41.03 10.84 40.42 10.22L40.42 10.22L40.42 10.22Q39.80 9.60 39.80 8.65L39.80 8.65L39.80 6.05L39.80 6.05Q39.80 5.52 39.75 5.00L39.75 5.00L39.75 5.00Q39.75 4.72 39.71 4.51L39.71 4.51L39.71 4.51Q39.68 4.30 39.66 4.23L39.66 4.23L38.78 4.06L38.78 3.57L38.78 3.57Q39.07 3.57 39.21 3.56L39.21 3.56L39.21 3.56Q39.34 3.55 39.88 3.44L39.88 3.44L39.88 3.44Q40.44 3.37 40.95 3.22L40.95 3.22L41.56 3.22L41.44 5.64L41.44 7.55L41.44 7.55Q41.44 8.59 41.75 9.12L41.75 9.12L41.75 9.12Q42.06 9.65 42.70 9.65L42.70 9.65L42.70 9.65Q43.55 9.65 44.01 8.91L44.01 8.91L44.01 8.91Q44.47 8.17 44.47 6.92L44.47 6.92L44.47 6.05L44.47 6.05Q44.47 5.81 44.45 5.55L44.45 5.55L44.45 5.55Q44.44 5.29 44.41 5.00L44.41 5.00L44.34 4.23L43.45 4.06L43.45 3.57L43.45 3.57Q43.70 3.57 43.91 3.54L43.91 3.54L43.91 3.54Q44.12 3.51 44.49 3.44L44.49 3.44L44.49 3.44Q45.00 3.37 45.54 3.22L45.54 3.22L46.16 3.22ZM54.74 5.43L54.74 7.94L54.74 7.94Q54.74 8.35 54.75 8.72L54.75 8.72L54.75 8.72Q54.76 9.08 54.81 9.53L54.81 9.53L54.81 9.53Q54.86 9.98 54.88 10.04L54.88 10.04L55.63 10.20L55.63 10.68L53.93 10.64L53.12 10.68L53.12 10.20L53.10 10.04L53.10 6.43L53.10 6.43Q53.10 5.40 52.79 4.90L52.79 4.90L52.79 4.90Q52.52 4.40 51.77 4.40L51.77 4.40L51.77 4.40Q51.02 4.40 50.55 5.04L50.55 5.04L50.55 5.04Q50.14 5.67 50.14 6.73L50.14 6.73L50.14 7.94L50.14 7.94Q50.14 8.42 50.15 8.75L50.15 8.75L50.15 8.75Q50.16 9.08 50.21 9.39L50.21 9.39L50.28 10.04L51.03 10.20L51.03 10.68L49.33 10.64L47.61 10.68L47.61 10.20L48.36 10.04L48.43 9.39L48.43 9.39Q48.46 9.09 48.48 8.70L48.48 8.70L48.48 8.70Q48.51 8.32 48.51 7.94L48.51 7.94L48.51 6.40L48.51 6.22L48.51 6.06L48.51 6.06Q48.51 5.81 48.49 5.55L48.49 5.55L48.49 5.55Q48.48 5.28 48.45 5.03L48.45 5.03L48.37 4.19L47.49 4.02L47.49 3.54L47.49 3.54Q47.80 3.54 48.05 3.50L48.05 3.50L48.05 3.50Q48.42 3.43 48.60 3.41L48.60 3.41L48.60 3.41Q49.10 3.32 49.22 3.30L49.22 3.30L49.22 3.30Q49.34 3.28 49.71 3.17L49.71 3.17L50.20 3.17L50.14 4.48L50.14 4.48Q50.67 3.84 51.29 3.53L51.29 3.53L51.29 3.53Q51.91 3.22 52.62 3.22L52.62 3.22L52.62 3.22Q53.58 3.22 54.16 3.82L54.16 3.82L54.16 3.82Q54.74 4.43 54.74 5.43L54.74 5.43ZM61.71 8.72L61.71 8.72L62.23 9.31L62.23 9.31Q61.79 9.85 60.98 10.38L60.98 10.38L60.98 10.38Q60.18 10.84 59.11 10.84L59.11 10.84L59.11 10.84Q57.43 10.84 56.39 9.90L56.39 9.90L56.39 9.90Q55.36 8.95 55.36 7.34L55.36 7.34L55.36 7.34Q55.36 5.58 56.63 4.40L56.63 4.40L56.63 4.40Q57.89 3.22 59.80 3.22L59.80 3.22L59.80 3.22Q60.55 3.22 61.16 3.38L61.16 3.38L61.16 3.38Q61.68 3.50 61.95 3.62L61.95 3.62L61.95 3.62Q61.90 3.74 61.80 4.02L61.80 4.02L61.80 4.02Q61.70 4.29 61.64 4.49L61.64 4.49L61.41 5.35L60.91 5.28L60.91 4.58L60.91 4.58Q60.89 4.54 60.74 4.46L60.74 4.46L60.74 4.46Q60.59 4.38 60.40 4.30L60.40 4.30L60.40 4.30Q59.93 4.09 59.42 4.09L59.42 4.09L59.42 4.09Q58.36 4.09 57.73 4.81L57.73 4.81L57.73 4.81Q57.11 5.53 57.11 6.73L57.11 6.73L57.11 6.73Q57.11 8.03 57.80 8.84L57.80 8.84L57.80 8.84Q58.49 9.65 59.63 9.65L59.63 9.65L59.63 9.65Q60.53 9.65 61.02 9.28L61.02 9.28L61.02 9.28Q61.16 9.17 61.43 8.95L61.43 8.95L61.43 8.95Q61.56 8.84 61.71 8.72Z"></path></g><!----><!----></svg>